<svg xmlns="http://www.w3.org/2000/svg" xmlns:xlink="http://www.w3.org/1999/xlink" version="1.1" x="0px" y="0px" viewBox="0 0 500 625" enable-background="new 0 0 500 500" xml:space="preserve"><g><g><g><g><path d="M362.1,428.5c-25.2,0-50.5,0-75.7,0c-40.2,0-80.5,0-120.7,0c-9.2,0-18.5,0-27.7,0c3.3,3.3,6.7,6.7,10,10      c0-26.2,0-52.3,0-78.5c0-12.2-0.4-24.4,2.3-36.4c5-21.7,17.4-41.4,35.1-55c17-13.1,37.9-19.9,59.3-19.9c8.2,0,16.4-0.3,24.5,0.8      c11.2,1.6,22.3,5.2,32.2,10.6c19.2,10.4,34.8,27.3,43.3,47.6c5.9,14.1,7.4,28.7,7.4,43.8c0,28.3,0,56.5,0,84.8      c0,0.7,0,1.5,0,2.2c0,12.9,20,12.9,20,0c0-27.3,0-54.5,0-81.8c0-15.2-0.4-30.2-4.8-44.9c-7.3-24.5-22.6-45.7-43.1-60.9      c-19.8-14.6-44.1-22.1-68.6-22.2c-22.7-0.1-44.2,2.4-64.8,12.9c-22,11.2-40.5,30.1-51.1,52.3c-8.3,17.3-11.7,35.7-11.7,54.8      c0,29.1,0,58.2,0,87.3c0,0.8,0,1.6,0,2.4c0,5.4,4.6,10,10,10c25.2,0,50.5,0,75.7,0c40.2,0,80.5,0,120.7,0c9.2,0,18.5,0,27.7,0      C374.9,448.5,375,428.5,362.1,428.5z"/></g></g></g><g><g><path d="M314.3,134.7c-0.2,26.3-16.6,51.2-41.7,60.3c-25.9,9.3-54.8,1.6-72.4-19.6c-17.2-20.7-19-51-5.2-73.9     c13.7-22.8,41.2-35.3,67.4-30C292.4,77.7,314,104.1,314.3,134.7c0.1,12.9,20.1,12.9,20,0c-0.3-35.5-22.6-67-55.8-79.3     c-32.6-12.1-71.4-1.4-93.3,25.5c-22.3,27.4-25.9,66.6-7.5,97.1c18.4,30.6,54.5,46.1,89.3,39.3c39-7.6,67-43.3,67.3-82.6     C334.4,121.8,314.4,121.8,314.3,134.7z"/></g></g></g><text x="0" y="515" fill="#000000" font-size="5px" font-weight="bold" font-family="'Helvetica Neue', Helvetica, Arial-Unicode, Arial, Sans-serif">Created by Neha Tyagi</text><text x="0" y="520" fill="#000000" font-size="5px" font-weight="bold" font-family="'Helvetica Neue', Helvetica, Arial-Unicode, Arial, Sans-serif">from the Noun Project</text></svg>